<?xml version="1.0" encoding="UTF-8" standalone="no"?>
<!DOCTYPE svg PUBLIC "-//W3C//DTD SVG 1.1//EN" "http://www.w3.org/Graphics/SVG/1.1/DTD/svg11.dtd">
<svg width="100%" height="100%" viewBox="0 0 201 180" version="1.1" xmlns="http://www.w3.org/2000/svg" xmlns:xlink="http://www.w3.org/1999/xlink" xml:space="preserve" xmlns:serif="http://www.serif.com/" style="fill-rule:evenodd;clip-rule:evenodd;stroke-linejoin:round;stroke-miterlimit:2;">
    <g transform="matrix(1,0,0,1,-720.141,-400.614)">
        <g transform="matrix(1,0,0,1,45.7228,-48.3696)">
            <path d="M676.699,525.518C671.178,499.244 675.682,475.921 690.208,462.121C705.767,447.34 732.824,443.483 754.385,458.623L754.385,525.518L676.699,525.518ZM794.453,458.622C816.013,443.483 843.07,447.34 858.629,462.121C873.156,475.921 877.66,499.244 872.139,525.518L794.453,525.518L794.453,458.622ZM856.825,565.587C844.372,588.248 819.341,610.69 794.453,628.595L794.453,565.587L856.825,565.587ZM754.385,628.595C729.497,610.69 704.465,588.249 692.012,565.587L754.385,565.587L754.385,628.595Z" style="fill:rgb(255,0,0);"/>
        </g>
    </g>
</svg>
